HIERARCHY
ROOT SpineBase
{
  OFFSET 0.000000 0.000000 0.000000
  CHANNELS 6 Xposition Yposition Zposition Zrotation Xrotation Yrotation
  JOINT SpineMid
  {
    OFFSET 0.000000 29.315181 0.000000
    CHANNELS 3 Zrotation Xrotation Yrotation
    JOINT SpineShoulder
    {
      OFFSET 0.026736 21.817106 -0.661238
      CHANNELS 3 Zrotation Xrotation Yrotation
      JOINT Neck
      {
        OFFSET 0.021264 7.235161 -0.510114
        CHANNELS 3 Zrotation Xrotation Yrotation
        JOINT Head
        {
          OFFSET -4.165829 13.574480 -0.633955
          CHANNELS 3 Zrotation Xrotation Yrotation
          End Site
          {
            OFFSET 0 0 0
          }
        }
      }
      JOINT ShoulderLeft
      {
        OFFSET -15.896935 -4.350441 6.462269
        CHANNELS 3 Zrotation Xrotation Yrotation
        JOINT ElbowLeft
        {
          OFFSET -1.358878 -26.528328 2.155352
          CHANNELS 3 Zrotation Xrotation Yrotation
          JOINT WristLeft
          {
            OFFSET 1.298908 -19.372598 -5.260524
            CHANNELS 3 Zrotation Xrotation Yrotation
            JOINT HandLeft
            {
              OFFSET 1.276546 -4.584661 -0.931514
              CHANNELS 3 Zrotation Xrotation Yrotation
              JOINT HandTipLeft
              {
                OFFSET 0.113146 -6.419780 -0.658866
                CHANNELS 3 Zrotation Xrotation Yrotation
                End Site
                {
                  OFFSET 0 0 0
                }
              }
              JOINT ThumbLeft
              {
                OFFSET -2.524925 -0.707790 -1.518876
                CHANNELS 3 Zrotation Xrotation Yrotation
                End Site
                {
                  OFFSET 0 0 0
                }
              }
            }
          }
        }
      }
      JOINT ShoulderRight
      {
        OFFSET 14.132483 -2.883011 -8.076670
        CHANNELS 3 Zrotation Xrotation Yrotation
        JOINT ElbowRight
        {
          OFFSET 6.131635 -24.444779 -1.899823
          CHANNELS 3 Zrotation Xrotation Yrotation
          JOINT WristRight
          {
            OFFSET -1.423176 -19.073591 -5.825667
            CHANNELS 3 Zrotation Xrotation Yrotation
            JOINT HandRight
            {
              OFFSET -2.509008 -5.775450 -0.005446
              CHANNELS 3 Zrotation Xrotation Yrotation
              JOINT HandTipRight
              {
                OFFSET -1.447817 -4.091717 -0.785260
                CHANNELS 3 Zrotation Xrotation Yrotation
                End Site
                {
                  OFFSET 0 0 0
                }
              }
              JOINT ThumbRight
              {
                OFFSET 3.196625 -1.031858 -0.361360
                CHANNELS 3 Zrotation Xrotation Yrotation
                End Site
                {
                  OFFSET 0 0 0
                }
              }
            }
          }
        }
      }
    }
  }
  JOINT HipLeft
  {
    OFFSET -6.456946 0.362576 -0.595629
    CHANNELS 3 Zrotation Xrotation Yrotation
    JOINT KneeLeft
    {
      OFFSET 6.593595 -29.790022 6.868571
      CHANNELS 3 Zrotation Xrotation Yrotation
      JOINT AnkleLeft
      {
        OFFSET 7.066698 -30.488884 4.483917
        CHANNELS 3 Zrotation Xrotation Yrotation
        JOINT FootLeft
        {
          OFFSET -3.856548 -3.926093 -12.143079
          CHANNELS 3 Zrotation Xrotation Yrotation
          End Site
          {
            OFFSET 0 0 0
          }
        }
      }
    }
  }
  JOINT HipRight
  {
    OFFSET 7.051627 1.297074 -6.031890
    CHANNELS 3 Zrotation Xrotation Yrotation
    JOINT KneeRight
    {
      OFFSET 8.105951 -26.324356 3.377969
      CHANNELS 3 Zrotation Xrotation Yrotation
      JOINT AnkleRight
      {
        OFFSET 2.722352 -35.118438 8.347281
        CHANNELS 3 Zrotation Xrotation Yrotation
        JOINT FootRight
        {
          OFFSET -2.658028 -7.713997 -4.510027
          CHANNELS 3 Zrotation Xrotation Yrotation
          End Site
          {
            OFFSET 0 0 0
          }
        }
      }
    }
  }
}
MOTION
Frames: 10
Frame Time: 0.033333
-31.632482 68.201501 344.626843 -0.000000 0.000000 21.921357 -0.000000 0.000000 -21.921357 -0.000000 0.000000 0.000000 -0.000000 0.000000 0.000000 0.000000 0.000000 0.000000 -0.000000 0.000000 0.000000 -0.000000 0.000000 0.000000 -0.000000 0.000000 0.000000 -0.000000 0.000000 0.000000 0.000000 0.000000 0.000000 0.000000 0.000000 0.000000 -0.000000 0.000000 0.000000 -0.000000 0.000000 0.000000 -0.000000 0.000000 0.000000 -0.000000 0.000000 0.000000 0.000000 0.000000 0.000000 0.000000 0.000000 0.000000 -0.000000 0.000000 -21.921357 -0.000000 0.000000 0.000000 -0.000000 0.000000 0.000000 0.000000 0.000000 0.000000 -0.000000 0.000000 -21.921357 -0.000000 0.000000 0.000000 -0.000000 0.000000 0.000000 0.000000 0.000000 0.000000
-31.578649 68.179472 344.659535 0.076045 -0.024117 21.838340 -0.061617 0.050674 -21.838297 -0.000000 0.000000 0.000000 -0.000000 0.000000 0.000000 0.000000 0.000000 0.000000 -0.000000 0.000000 0.000000 -0.000000 0.000000 0.000000 -1.247550 -0.934928 -0.017097 1.895160 0.275741 -0.088246 0.000000 0.000000 0.000000 0.000000 0.000000 0.000000 0.467003 -1.553638 -0.419707 -1.258248 0.641392 0.755602 -1.523022 -0.593394 0.341849 3.021191 2.856429 -1.327699 0.000000 0.000000 0.000000 0.000000 0.000000 0.000000 -0.061617 0.050674 -21.838297 -0.000000 0.000000 0.000000 -0.000000 0.000000 0.000000 0.000000 0.000000 0.000000 -0.061617 0.050674 -21.838297 -0.000000 0.000000 0.000000 1.603501 -0.012765 -0.937540 0.000000 0.000000 0.000000
-31.535747 68.161497 344.690677 0.134266 -0.050420 21.795227 -0.105948 0.096667 -21.795079 -0.000000 0.000000 0.000000 -0.000000 0.000000 0.000000 0.000000 0.000000 0.000000 -0.000000 0.000000 0.000000 -0.000000 0.000000 0.000000 -2.291109 -1.758917 -0.059913 3.580734 0.373788 -0.191539 0.000000 0.000000 0.000000 0.000000 0.000000 0.000000 0.750988 -2.593527 -0.692100 -2.038019 1.038694 1.271437 -2.606638 -0.950391 0.572401 5.152373 4.530132 -2.213732 0.000000 0.000000 0.000000 0.000000 0.000000 0.000000 -0.105948 0.096667 -21.795079 -0.000000 0.000000 0.000000 -0.000000 0.000000 0.000000 0.000000 0.000000 0.000000 -0.105948 0.096667 -21.795079 -0.000000 0.000000 0.000000 2.768210 -0.120885 -1.588291 0.000000 0.000000 0.000000
-31.503778 68.147576 344.720270 0.174715 -0.078915 21.791808 -0.132934 0.138136 -21.791527 -0.000000 0.000000 0.000000 -0.000000 0.000000 0.000000 0.000000 0.000000 0.000000 -0.000000 0.000000 0.000000 -0.000000 0.000000 0.000000 -3.158016 -2.490325 -0.121834 5.067647 0.326089 -0.297495 0.000000 0.000000 0.000000 0.000000 0.000000 0.000000 0.866173 -3.139995 -0.831580 -2.351687 1.227493 1.525617 -3.230999 -1.050794 0.686791 6.276846 4.964431 -2.533279 0.000000 0.000000 0.000000 0.000000 0.000000 0.000000 -0.132934 0.138136 -21.791527 -0.000000 0.000000 0.000000 -0.000000 0.000000 0.000000 0.000000 0.000000 0.000000 -0.132934 0.138136 -21.791527 -0.000000 0.000000 0.000000 3.488896 -0.308640 -1.948007 0.000000 0.000000 0.000000
-31.482741 68.137710 344.748314 0.197434 -0.109613 21.827989 -0.142523 0.175164 -21.827582 -0.000000 0.000000 0.000000 -0.000000 0.000000 0.000000 0.000000 0.000000 0.000000 -0.000000 0.000000 0.000000 0.788594 -0.050444 -0.217102 -4.645363 -3.111477 0.022292 6.360176 0.165003 -0.396049 0.000000 0.000000 0.000000 0.000000 0.000000 0.000000 0.819610 -3.204837 -0.845176 -2.206005 1.226254 1.509349 -3.388002 -0.885225 0.680960 6.348161 4.166477 -2.236496 0.000000 0.000000 0.000000 0.000000 0.000000 0.000000 -0.142523 0.175164 -21.827582 -0.000000 0.000000 0.000000 -0.000000 0.000000 0.000000 0.000000 0.000000 0.000000 -0.142523 0.175164 -21.827582 -0.000000 0.000000 0.000000 3.763141 -0.566961 -2.015383 0.000000 0.000000 0.000000
-31.472636 68.131898 344.774808 0.202446 -0.142522 21.903791 -0.134665 0.207756 -21.903295 -0.000000 0.000000 0.000000 0.211051 -0.786874 -0.229975 0.000000 0.000000 0.000000 -0.364540 -0.768286 0.007288 1.259615 0.612368 -0.276369 -5.316315 -3.601235 -0.021128 7.458526 -0.077193 -0.479109 0.000000 0.000000 0.000000 0.000000 0.000000 0.000000 0.611713 -2.790369 -0.733103 -1.601220 1.035906 1.224747 -3.075200 -0.452279 0.549515 5.396676 2.198003 -1.356252 0.000000 0.000000 0.000000 0.000000 0.000000 0.000000 -0.134665 0.207756 -21.903295 -0.000000 0.000000 0.000000 -0.000000 0.000000 0.000000 0.000000 0.000000 0.000000 -0.134665 0.207756 -21.903295 -0.000000 0.000000 0.000000 3.589370 -0.893672 -1.790641 0.000000 0.000000 0.000000
-31.390868 68.122563 344.761710 0.289924 -0.140734 21.902848 -0.216500 0.238725 -21.902041 -0.000000 0.000000 0.000000 0.293748 -0.926568 -0.267951 0.000000 0.000000 0.000000 -0.388235 -0.868049 0.009974 1.629490 0.550967 -0.389479 -6.637358 -4.472560 -0.063233 8.598152 -0.692065 -0.536643 0.000000 0.000000 0.000000 0.000000 0.000000 0.000000 0.008628 -2.937230 -0.738822 -0.096211 0.897466 0.918192 -2.680515 -0.754675 1.060176 1.559113 1.583480 -0.573021 0.000000 0.000000 0.000000 0.000000 0.000000 0.000000 -0.216500 0.238725 -21.902041 -0.000000 0.000000 0.000000 -1.040680 1.467618 1.707450 0.000000 0.000000 0.000000 -0.216500 0.238725 -21.902041 -0.000000 0.000000 0.000000 1.415338 -2.025593 -0.106016 0.000000 0.000000 0.000000
-31.258173 68.113814 344.778873 0.445849 -0.191623 21.908847 -0.342155 0.344139 -21.907074 -0.000000 0.000000 0.000000 0.364715 -1.051330 -0.301844 0.000000 0.000000 0.000000 -0.306702 -0.869178 0.017265 1.578675 0.253307 -0.421297 -7.070641 -4.503788 -0.040547 9.324902 -1.937620 -0.607380 0.000000 0.000000 0.000000 0.000000 0.000000 0.000000 -0.453293 -2.428055 -0.585051 2.005459 -0.417197 0.276912 -1.398865 -0.510359 1.761642 -0.280520 -3.358425 0.958395 0.000000 0.000000 0.000000 0.000000 0.000000 0.000000 -0.342155 0.344139 -21.907074 -0.000000 0.000000 0.000000 0.427556 -0.379267 -0.961785 0.000000 0.000000 0.000000 -1.374787 0.044576 -22.216868 0.842716 0.667767 0.308386 -0.758670 -2.715061 1.377170 0.000000 0.000000 0.000000
-31.609803 68.103816 344.783492 -0.116519 -0.188037 21.985673 0.178442 0.130740 -21.986067 -0.000000 0.000000 0.000000 0.456495 -1.168118 -0.331955 0.000000 0.000000 0.000000 -0.199856 -0.854381 0.026019 1.310203 -0.026965 -0.398125 -7.097973 -4.520898 -0.100516 10.853664 -0.008184 -0.827663 0.000000 0.000000 0.000000 0.000000 0.000000 0.000000 -0.898482 0.438373 0.183534 3.600090 -2.002602 -0.834057 0.776697 2.901681 0.022620 -1.374487 -10.831851 3.820885 0.000000 0.000000 0.000000 0.000000 0.000000 0.000000 0.178442 0.130740 -21.986067 -0.000000 0.000000 0.000000 1.592883 -1.974998 -3.170897 0.000000 0.000000 0.000000 -0.577482 -0.501883 -22.315944 0.459151 0.872249 0.323933 -1.758650 -3.090588 2.067479 0.000000 0.000000 0.000000
-31.997435 68.137794 344.917804 -0.592862 -0.362652 22.780102 0.687034 0.104795 -22.782607 -0.000000 0.000000 0.000000 0.454142 -1.304752 -0.373394 0.000000 0.000000 0.000000 -0.000000 0.000000 0.000000 0.880693 -0.985001 -0.298168 -6.457615 -4.536135 -0.262145 12.350058 0.848395 -1.025037 0.000000 0.000000 0.000000 0.000000 0.000000 0.000000 -1.542210 6.122986 1.738194 4.833617 -3.653480 -2.510050 3.207624 4.323938 -2.016646 -2.862613 -15.048211 5.663223 0.000000 0.000000 0.000000 0.000000 0.000000 0.000000 0.687034 0.104795 -22.782607 -0.000000 0.000000 0.000000 2.375800 -3.293059 -4.539189 0.000000 0.000000 0.000000 0.790853 -0.751055 -22.957464 -0.429446 0.747558 0.178245 -1.862705 -3.194506 2.161086 0.000000 0.000000 0.000000
